<?xml version="1.0" encoding="utf-8"?>
<!-- Svg Vector Icons : http://www.onlinewebfonts.com/icon -->
<!DOCTYPE svg PUBLIC "-//W3C//DTD SVG 1.1//EN" "http://www.w3.org/Graphics/SVG/1.1/DTD/svg11.dtd">
<svg version="1.1" xmlns="http://www.w3.org/2000/svg" xmlns:xlink="http://www.w3.org/1999/xlink" x="0px" y="0px" viewBox="0 0 1000 1000" enable-background="new 0 0 1000 1000" xml:space="preserve">
<metadata> Svg Vector Icons : http://www.onlinewebfonts.com/icon </metadata>
<g><path d="M688.7,719.7C632.4,749.8,568.2,767,499.9,767c-68.2,0-132.4-17.2-188.7-47.4C189.7,751.6,94.5,827.3,50.8,990h898.3C905.5,827.2,810.3,751.6,688.7,719.7z"/><path d="M500,663.3c180.4,0,326.7-146.3,326.7-326.7C826.7,156.3,680.4,10,500,10S173.3,156.3,173.3,336.7C173.3,517.1,319.6,663.3,500,663.3z M718.4,445.6C678.2,525.9,596,581.7,500,581.7c-96,0-178.2-55.7-218.4-136.1H718.4z"/></g>
</svg>